<?xml version="1.0" standalone="no"?>
<!DOCTYPE svg PUBLIC "-//W3C//DTD SVG 20010904//EN"
 "http://www.w3.org/TR/2001/REC-SVG-20010904/DTD/svg10.dtd">
<svg version="1.0" xmlns="http://www.w3.org/2000/svg"
 width="1179.000000pt" height="1280.000000pt" viewBox="0 0 1179.000000 1280.000000"
 preserveAspectRatio="xMidYMid meet">
<g transform="translate(0.000000,1280.000000) scale(0.100000,-0.100000)"
fill="#000000" stroke="none">
<path d="M3913 12788 c1 -9 -40 -16 -148 -25 -145 -12 -226 -22 -291 -38 -20
-4 -34 -3 -38 4 -4 6 -17 11 -30 11 -12 0 -27 5 -33 11 -7 7 -52 -1 -154 -31
-79 -23 -169 -44 -199 -47 -30 -2 -86 -15 -125 -28 -38 -13 -110 -36 -160 -50
-125 -37 -181 -56 -325 -110 -69 -26 -147 -54 -175 -62 -56 -17 -194 -82 -270
-126 -27 -17 -93 -55 -145 -85 -247 -143 -448 -297 -691 -530 -107 -103 -220
-220 -249 -260 -30 -39 -82 -97 -117 -127 -59 -53 -114 -134 -197 -290 -14
-27 -48 -84 -76 -125 -27 -41 -49 -87 -49 -101 -1 -43 -30 -127 -91 -269 -32
-74 -68 -171 -80 -215 -24 -87 -36 -108 -49 -86 -6 9 -12 -3 -21 -38 -18 -75
-35 -66 -67 37 -22 69 -29 81 -31 58 -2 -16 2 -39 8 -52 8 -14 10 -38 6 -65
-4 -24 -10 -132 -15 -239 -4 -107 -9 -196 -10 -197 0 -2 -12 -3 -26 -3 -22 0
-25 -4 -25 -34 0 -18 7 -39 16 -47 12 -10 14 -23 10 -53 -4 -23 -11 -114 -16
-203 -5 -90 -13 -171 -18 -180 -11 -20 -11 -15 41 -304 20 -107 39 -242 43
-300 5 -83 12 -118 36 -174 17 -38 41 -106 55 -150 14 -44 35 -100 48 -125 12
-25 39 -99 60 -165 23 -74 67 -177 115 -270 42 -82 80 -162 83 -176 4 -15 24
-53 45 -85 51 -78 102 -162 121 -199 9 -17 39 -59 66 -94 28 -35 68 -89 90
-121 22 -31 75 -99 117 -149 43 -51 78 -99 78 -105 0 -16 133 -152 272 -276
59 -53 126 -117 149 -143 23 -27 62 -59 88 -72 48 -24 409 -310 681 -539 856
-718 1519 -1405 1939 -2010 112 -161 221 -337 221 -356 0 -7 9 -27 20 -46 14
-22 24 -63 31 -126 19 -184 32 -268 42 -268 5 0 7 13 4 30 -12 57 -20 240 -11
240 5 0 15 -10 23 -21 23 -38 81 -180 81 -200 0 -11 13 -43 29 -72 40 -69 54
-126 57 -222 1 -66 6 -89 29 -128 20 -36 28 -68 32 -123 3 -41 9 -71 13 -67 5
4 22 53 40 108 17 55 35 104 39 110 5 5 11 26 14 45 7 48 46 150 57 150 5 0
13 -15 18 -32 l9 -33 7 43 c4 23 15 49 23 58 11 11 14 28 11 64 -3 28 -1 73 3
102 11 69 120 330 234 558 239 479 417 726 648 897 49 36 112 86 140 112 111
99 385 291 418 291 10 0 45 28 80 63 34 34 94 84 133 110 39 26 94 63 121 81
28 19 100 60 160 91 61 32 115 62 121 66 25 20 217 97 229 93 15 -6 83 26 142
68 32 24 47 29 71 23 22 -4 31 -2 35 9 4 9 30 27 59 41 29 14 64 32 78 40 77
45 218 105 245 105 18 0 46 11 65 25 37 27 441 230 580 291 47 20 103 49 125
64 22 14 67 41 100 60 90 50 274 180 280 199 6 21 113 111 130 111 21 0 28
-19 14 -36 -10 -13 -10 -17 1 -24 21 -13 49 11 81 70 16 30 39 67 52 81 23 28
416 325 442 336 26 9 16 -10 -27 -55 -52 -54 -22 -40 47 22 43 39 47 45 28 46
-41 0 -24 29 44 78 71 50 136 112 183 175 16 21 59 60 97 86 90 64 243 198
243 214 0 15 61 77 76 77 12 0 114 102 114 115 0 6 35 51 78 101 42 50 91 108
108 129 22 29 35 37 48 32 14 -6 17 -14 12 -35 l-6 -27 26 30 c14 17 52 59 83
95 31 36 83 105 115 154 31 49 81 119 110 155 29 36 65 89 80 117 15 29 41 61
57 73 30 22 41 58 14 48 -8 -4 -17 -2 -20 3 -11 18 27 134 82 250 62 131 143
344 143 375 0 30 58 177 80 200 24 26 60 130 60 175 0 19 9 68 20 109 11 41
20 82 20 90 1 9 9 34 20 56 21 44 26 90 10 100 -5 3 -10 -4 -11 -17 -1 -13 -5
-5 -9 17 -13 69 -22 415 -11 415 6 0 13 -12 17 -27 12 -55 17 -58 26 -18 6 25
5 55 -1 80 -6 22 -13 59 -16 82 -4 23 -15 59 -26 80 -10 20 -19 44 -19 53 0 8
-27 95 -60 194 -33 98 -60 192 -60 210 0 40 -51 154 -127 286 -33 58 -86 156
-118 219 -42 86 -70 126 -110 165 -29 28 -70 74 -92 102 -41 56 -327 334 -343
334 -5 0 -32 20 -59 44 -28 25 -79 58 -115 76 -37 17 -91 55 -123 86 -88 84
-205 141 -498 241 -359 122 -559 173 -682 173 -68 0 -101 9 -127 36 -13 13
-51 21 -149 31 -73 7 -145 18 -162 23 -16 6 -96 14 -177 17 -120 5 -155 3
-190 -10 -59 -21 -165 -28 -212 -15 -29 9 -82 9 -218 -1 -193 -13 -238 -23
-479 -100 -85 -27 -192 -60 -239 -74 -150 -44 -292 -97 -400 -148 -58 -28
-129 -62 -158 -76 -30 -14 -57 -34 -62 -47 -4 -12 -31 -35 -60 -50 -145 -79
-382 -294 -485 -441 -27 -38 -70 -97 -95 -130 -26 -33 -71 -100 -99 -150 -29
-49 -64 -105 -78 -123 -13 -17 -31 -48 -39 -67 -8 -19 -20 -35 -28 -35 -16 0
-79 149 -101 240 -73 300 -209 546 -414 751 -127 126 -237 205 -431 307 -156
82 -243 115 -401 152 -74 17 -155 38 -181 46 -25 8 -94 21 -153 29 -59 8 -115
20 -125 25 -26 14 -71 13 -67 -2z m-3799 -3159 c8 -40 8 -93 0 -113 -19 -49
-41 25 -30 99 8 52 21 58 30 14z m11006 -1206 c0 -5 -10 -24 -22 -43 -17 -28
-23 -31 -26 -17 -4 20 23 67 38 67 6 0 10 -3 10 -7z m-395 -500 c-37 -58 -127
-162 -159 -184 -19 -13 -32 -29 -29 -36 3 -6 -26 -46 -64 -86 -37 -41 -84 -96
-103 -122 -46 -61 -118 -127 -130 -120 -12 7 -47 -10 -77 -38 -47 -42 -21 2
55 93 84 101 266 280 286 280 7 0 16 11 22 25 10 27 204 228 212 220 3 -2 -3
-17 -13 -32z m-615 -592 c0 -5 -12 -19 -27 -32 -15 -13 -82 -80 -149 -148 -73
-74 -126 -121 -133 -117 -16 10 11 45 106 137 149 144 203 187 203 160z m-206
-293 c-11 -18 -73 -71 -110 -93 -18 -11 -104 -81 -191 -155 -87 -75 -187 -158
-223 -185 -36 -26 -79 -61 -96 -77 -16 -15 -53 -40 -82 -56 -28 -15 -111 -68
-184 -118 -73 -50 -187 -123 -253 -163 -66 -40 -139 -86 -162 -103 -31 -23
-54 -31 -93 -33 -34 -2 -59 -10 -73 -22 -91 -80 -410 -263 -460 -263 -20 0
-79 -28 -227 -105 -141 -74 -469 -220 -477 -212 -2 3 9 18 24 35 27 29 202
122 230 122 17 0 137 60 186 94 46 31 102 56 128 56 34 0 169 73 169 91 0 35
151 130 234 146 17 4 49 21 72 38 43 33 331 196 417 236 27 12 58 35 70 50 11
16 56 52 98 80 52 34 81 60 87 78 7 19 41 50 105 95 53 36 101 66 107 66 7 0
26 10 43 23 46 32 155 87 175 87 19 0 92 48 208 136 97 74 157 115 209 143 44
23 81 28 69 9z m-314 -127 c0 -13 -28 -33 -41 -29 -8 3 -6 9 5 21 19 18 36 22
36 8z m-680 -476 c0 -2 -10 -10 -22 -16 -21 -11 -22 -11 -9 4 13 16 31 23 31
12z m-2015 -1145 c-3 -5 -47 -35 -98 -66 -51 -31 -120 -76 -155 -100 -75 -52
-303 -191 -329 -201 -10 -3 -45 -25 -78 -48 -78 -54 -85 -58 -85 -46 0 23 187
161 315 231 75 41 154 89 174 107 35 30 232 133 253 133 5 0 7 -4 3 -10z"/>
<path d="M9297 6658 c-60 -36 -96 -72 -85 -84 3 -3 133 98 157 122 12 12 -11
0 -72 -38z"/>
<path d="M8864 6314 c-18 -14 -18 -15 4 -4 12 6 22 13 22 15 0 8 -5 6 -26 -11z"/>
<path d="M8283 12770 c-126 -8 -111 -20 25 -20 66 0 123 4 126 9 8 12 -54 17
-151 11z"/>
<path d="M8593 12763 c9 -2 25 -2 35 0 9 3 1 5 -18 5 -19 0 -27 -2 -17 -5z"/>
<path d="M8990 12735 c0 -12 16 -15 93 -14 95 1 85 7 -40 23 -44 6 -53 4 -53
-9z"/>
<path d="M7631 12694 c-104 -22 -146 -35 -110 -34 31 1 282 58 254 58 -16 0
-81 -11 -144 -24z"/>
<path d="M9190 12713 c8 -2 24 -9 35 -14 11 -5 54 -16 95 -25 360 -78 621
-162 800 -256 63 -33 122 -66 130 -72 30 -25 230 -119 237 -113 15 16 -15 34
-283 172 -258 134 -548 232 -852 291 -111 21 -204 31 -162 17z"/>
<path d="M2455 12685 c-33 -14 -61 -25 -63 -25 -2 0 -1 -9 3 -20 5 -15 -2 -24
-27 -40 -18 -11 -48 -23 -66 -26 -30 -6 -49 -20 -40 -29 5 -5 175 67 246 104
29 15 42 28 40 39 -5 25 -27 24 -93 -3z"/>
<path d="M7478 12653 c7 -3 16 -2 19 1 4 3 -2 6 -13 5 -11 0 -14 -3 -6 -6z"/>
<path d="M7438 12643 c7 -3 16 -2 19 1 4 3 -2 6 -13 5 -11 0 -14 -3 -6 -6z"/>
<path d="M2123 12550 c-35 -16 -63 -32 -63 -35 0 -16 122 34 135 55 9 15 -4
11 -72 -20z"/>
<path d="M1529 12187 c-24 -19 -80 -58 -124 -87 -44 -29 -97 -68 -118 -87 -21
-19 -50 -39 -65 -46 -38 -16 -244 -189 -290 -243 -63 -75 -245 -374 -225 -374
4 1 17 15 28 32 11 18 31 35 45 38 17 4 72 65 177 195 232 288 303 360 451
460 70 47 134 85 142 85 8 0 23 14 32 30 23 41 4 40 -53 -3z"/>
<path d="M10630 12135 c7 -8 17 -15 22 -15 6 0 5 7 -2 15 -7 8 -17 15 -22 15
-6 0 -5 -7 2 -15z"/>
<path d="M10717 12064 c-11 -11 3 -24 25 -24 17 0 18 2 8 15 -13 16 -23 19
-33 9z"/>
<path d="M1414 12019 c-44 -21 -106 -79 -85 -79 13 0 115 73 126 90 8 13 8 13
-41 -11z"/>
<path d="M10845 11969 c22 -22 49 -45 60 -51 11 -6 -2 13 -30 41 -27 28 -54
51 -59 51 -6 0 8 -18 29 -41z"/>
<path d="M11180 11559 c0 -18 28 -59 40 -59 13 0 0 37 -21 56 -15 14 -19 14
-19 3z"/>
<path d="M11320 11394 c0 -6 9 -23 21 -38 25 -31 85 -154 124 -251 15 -38 38
-86 51 -105 13 -19 24 -39 24 -45 0 -5 16 -41 36 -80 19 -38 33 -61 30 -50 -3
11 -8 37 -12 58 -3 21 -15 46 -24 55 -23 22 -97 188 -106 238 -3 22 -19 62
-35 90 -32 56 -108 146 -109 128z"/>
<path d="M549 11254 c-23 -25 -23 -26 -2 -15 23 12 38 29 31 37 -3 2 -15 -8
-29 -22z"/>
<path d="M361 10960 c-12 -22 -20 -40 -18 -40 7 0 48 72 44 76 -2 2 -14 -14
-26 -36z"/>
<path d="M495 10980 c-3 -5 -1 -10 4 -10 6 0 11 5 11 10 0 6 -2 10 -4 10 -3 0
-8 -4 -11 -10z"/>
<path d="M280 10761 c0 -10 -7 -35 -15 -54 -20 -48 -19 -54 5 -32 21 19 43 82
34 97 -9 15 -24 8 -24 -11z"/>
<path d="M145 10505 c-15 -47 -25 -88 -22 -91 3 -3 17 34 32 81 15 47 25 88
23 91 -3 2 -18 -34 -33 -81z"/>
<path d="M11702 10010 c0 -14 2 -19 5 -12 2 6 2 18 0 25 -3 6 -5 1 -5 -13z"/>
<path d="M22 9778 c-7 -29 -15 -66 -18 -83 l-5 -30 20 25 c15 19 21 40 21 83
0 31 -1 57 -3 57 -2 0 -9 -24 -15 -52z"/>
<path d="M11497 8957 c-16 -12 -81 -166 -74 -173 9 -9 39 38 67 106 17 40 29
75 27 76 -2 2 -11 -2 -20 -9z"/>
<path d="M10457 7385 c-15 -14 -27 -29 -27 -32 0 -4 14 6 30 22 28 26 34 35
27 35 -1 0 -15 -11 -30 -25z"/>
<path d="M10223 7162 c-65 -50 -84 -75 -33 -45 27 16 111 94 100 92 -3 0 -33
-21 -67 -47z"/>
<path d="M10045 7070 c-10 -11 -15 -20 -11 -20 14 0 46 21 46 30 0 16 -16 11
-35 -10z"/>
<path d="M8959 6179 c-23 -19 -23 -20 -2 -10 12 6 25 16 28 21 10 16 -1 12
-26 -11z"/>
<path d="M8390 5855 c-14 -8 -20 -14 -14 -15 5 0 19 7 30 15 24 18 16 19 -16
0z"/>
<path d="M7805 5580 c-3 -5 -2 -10 4 -10 5 0 13 5 16 10 3 6 2 10 -4 10 -5 0
-13 -4 -16 -10z"/>
<path d="M7213 5302 c-29 -14 -53 -30 -53 -34 0 -10 63 16 105 42 44 29 9 23
-52 -8z"/>
<path d="M1803 4448 c1 -7 -9 -14 -23 -16 -14 -2 -63 -12 -109 -23 -61 -14
-88 -16 -95 -9 -12 12 8 28 49 42 18 5 17 6 -5 7 -35 1 -222 -88 -266 -127
-25 -22 -34 -37 -30 -50 7 -22 -28 -42 -73 -42 -31 0 -75 -30 -92 -62 -10 -18
-9 -18 10 -8 12 6 21 7 21 2 0 -13 -34 -42 -49 -42 -7 0 -9 -4 -6 -10 3 -5
-17 -48 -45 -94 -73 -121 -90 -176 -90 -289 0 -68 7 -122 25 -193 14 -53 23
-100 20 -102 -15 -15 -103 110 -131 185 -31 83 -110 158 -224 214 -44 22 -205
17 -285 -8 -82 -26 -177 -81 -238 -139 -57 -54 -129 -189 -152 -284 -32 -136
-4 -334 61 -436 96 -150 106 -161 197 -214 87 -51 259 -120 300 -120 12 -1 47
-10 77 -21 30 -11 89 -24 130 -29 41 -5 104 -15 140 -24 36 -8 107 -20 158
-26 135 -15 181 -27 367 -95 33 -12 97 -46 143 -75 90 -60 95 -69 67 -145 -30
-85 -14 -214 32 -251 63 -52 128 -38 161 34 9 20 20 39 25 40 11 5 8 39 -6 75
-8 18 -37 63 -66 100 -60 78 -60 68 -5 237 34 105 72 187 104 225 24 30 73
130 56 116 -8 -7 -24 -32 -36 -55 -11 -24 -29 -51 -40 -61 -19 -18 -20 -17
-20 6 0 26 24 68 47 82 7 4 13 16 13 26 0 10 21 43 48 73 26 31 65 81 87 112
22 31 42 56 46 56 14 0 102 86 125 122 17 27 30 37 46 35 17 -2 25 7 39 46 9
26 31 63 48 82 34 39 42 58 13 32 -10 -10 -22 -17 -26 -17 -9 0 19 52 47 86
13 16 27 47 30 69 3 22 15 73 26 114 16 58 19 82 11 115 -5 22 -10 55 -10 71
0 17 -14 74 -32 129 -29 90 -31 99 -15 108 9 5 17 13 17 17 0 22 -108 170
-153 210 -28 25 -66 61 -84 79 -22 22 -40 31 -51 28 -23 -8 -186 59 -190 78
-4 18 -33 26 -94 26 -33 0 -47 -4 -45 -12z m438 -205 c13 -16 12 -17 -3 -4
-10 7 -18 15 -18 17 0 8 8 3 21 -13z m103 -142 c-7 -7 -34 28 -34 43 1 6 10 0
21 -13 11 -13 17 -27 13 -30z m-32 -833 c-7 -7 -12 -8 -12 -2 0 14 12 26 19
19 2 -3 -1 -11 -7 -17z m-518 -1114 c3 -8 2 -12 -4 -9 -6 3 -10 10 -10 16 0
14 7 11 14 -7z"/>
<path d="M9913 4320 c-86 -7 -179 -51 -293 -136 -106 -78 -128 -101 -161 -167
-44 -85 -91 -234 -85 -265 3 -15 8 -60 11 -100 9 -106 108 -414 158 -487 15
-22 27 -47 27 -57 0 -9 41 -98 91 -197 104 -207 135 -308 151 -495 10 -119 10
-119 -13 -137 -13 -10 -36 -19 -50 -19 -30 0 -139 -70 -175 -112 -39 -48 -26
-154 21 -172 24 -9 70 -7 99 4 19 7 26 6 26 -3 1 -26 66 64 83 114 41 121 49
139 63 139 8 0 22 4 32 9 9 5 63 24 119 41 92 28 203 44 363 51 l25 1 -26 8
c-14 4 -52 3 -83 -2 -65 -12 -95 1 -56 22 39 21 416 14 444 -9 15 -11 101 -23
158 -21 38 1 47 -2 42 -14 -3 -8 2 -17 14 -20 22 -7 70 14 65 29 -2 6 42 11
112 13 91 2 122 7 148 22 17 10 58 26 90 35 72 21 171 105 252 215 68 91 62
85 78 71 11 -8 17 -7 29 7 26 30 77 185 83 252 8 80 14 102 26 95 5 -4 9 10 9
29 0 26 -4 34 -14 30 -20 -8 -31 17 -52 115 -13 62 -15 86 -6 89 14 4 -6 57
-39 104 -16 22 -24 26 -30 17 -5 -9 -30 8 -86 61 -43 40 -81 79 -86 86 -14 23
15 27 44 5 36 -27 48 -27 24 -1 -18 20 -177 116 -220 133 -11 5 -42 13 -69 18
-27 5 -73 20 -102 34 -31 15 -68 24 -91 24 -23 -1 -29 -3 -15 -6 12 -2 20 -8
17 -13 -6 -10 -47 -1 -56 13 -4 5 -14 5 -25 -1 -11 -6 -68 -15 -128 -22 -59
-6 -131 -20 -160 -31 -75 -28 -177 -108 -247 -193 -55 -67 -85 -89 -74 -53 31
100 44 131 76 183 52 82 72 169 60 262 -12 99 -42 155 -127 239 -78 77 -169
129 -279 157 -62 17 -76 17 -192 6z m1787 -1507 c0 -14 -19 -38 -25 -32 -8 8
5 39 16 39 5 0 9 -3 9 -7z m-1939 -706 c-10 -9 -11 -8 -5 6 3 10 9 15 12 12 3
-3 0 -11 -7 -18z"/>
<path d="M1072 4058 c-14 -14 -16 -42 -3 -34 7 5 23 46 17 46 -1 0 -7 -5 -14
-12z"/>
<path d="M2451 3920 c0 -8 6 -26 14 -40 8 -14 14 -19 14 -10 0 8 -6 26 -14 40
-8 14 -14 19 -14 10z"/>
<path d="M10870 3786 c0 -10 28 -13 41 -5 10 6 7 9 -13 9 -16 0 -28 -2 -28 -4z"/>
<path d="M2487 3721 c-7 -57 -1 -83 14 -60 11 17 10 67 0 94 -6 14 -9 5 -14
-34z"/>
<path d="M9380 3385 c0 -5 5 -17 10 -25 5 -8 10 -10 10 -5 0 6 -5 17 -10 25
-5 8 -10 11 -10 5z"/>
<path d="M2051 2918 c-14 -23 -14 -23 8 -4 22 20 25 26 13 26 -4 0 -13 -10
-21 -22z"/>
<path d="M9670 2724 c0 -13 82 -199 92 -209 19 -18 -1 47 -42 133 -35 72 -50
96 -50 76z"/>
<path d="M11583 2578 c-19 -25 -35 -61 -24 -54 6 4 18 20 26 37 16 30 15 38
-2 17z"/>
<path d="M530 2570 c8 -5 20 -10 25 -10 6 0 3 5 -5 10 -8 5 -19 10 -25 10 -5
0 -3 -5 5 -10z"/>
<path d="M11438 2436 c-44 -25 -60 -51 -25 -41 23 7 89 66 72 64 -6 -1 -27
-11 -47 -23z"/>
<path d="M1263 2425 c47 -18 198 -47 205 -40 7 7 -39 22 -122 39 -96 20 -137
20 -83 1z"/>
<path d="M4630 2289 c1 -67 2 -72 14 -50 13 23 14 23 24 5 10 -16 11 -13 12
23 0 31 -6 49 -25 69 l-25 27 0 -74z"/>
<path d="M4955 2340 c-3 -11 -2 -28 4 -37 8 -15 10 -11 11 20 0 41 -5 47 -15
17z"/>
<path d="M10545 2330 c3 -5 8 -10 11 -10 2 0 4 5 4 10 0 6 -5 10 -11 10 -5 0
-7 -4 -4 -10z"/>
<path d="M11038 2313 c12 -2 32 -2 45 0 12 2 2 4 -23 4 -25 0 -35 -2 -22 -4z"/>
<path d="M4640 2035 c0 -22 5 -47 10 -55 7 -11 10 -4 10 25 0 22 -5 47 -10 55
-7 11 -10 4 -10 -25z"/>
<path d="M4950 1934 c1 -53 3 -65 11 -51 9 15 13 16 26 6 13 -11 14 -8 7 27
-4 21 -15 50 -25 63 l-19 24 0 -69z"/>
<path d="M4992 1628 c9 -44 15 -55 22 -47 7 7 -15 89 -24 89 -4 0 -4 -19 2
-42z"/>
<path d="M7050 1343 c-114 -20 -210 -75 -285 -164 -46 -55 -64 -101 -72 -186
-3 -35 -9 -63 -13 -63 -12 0 -30 50 -40 115 -11 70 -49 129 -100 160 -52 30
-208 29 -265 -2 -91 -48 -162 -163 -173 -280 -3 -36 2 -73 17 -121 17 -59 29
-76 78 -123 83 -80 160 -127 373 -234 60 -30 108 -65 163 -117 80 -75 93 -103
63 -137 -16 -20 -36 -77 -36 -106 0 -56 73 -70 106 -20 14 21 15 32 4 68 -6
23 -14 51 -16 62 -6 22 57 124 100 164 14 14 26 32 26 41 0 16 24 37 110 95
43 29 171 95 183 95 12 0 118 116 152 167 31 47 36 62 41 140 4 48 11 94 17
101 11 14 -4 79 -29 122 -8 14 -20 37 -25 52 -6 15 -35 45 -65 68 -30 22 -54
45 -54 50 0 9 -34 24 -60 26 -8 0 -36 2 -62 3 -26 0 -53 8 -62 16 -14 15 -28
16 -76 8z"/>
</g>
</svg>
