<?xml version="1.0" standalone="no"?>
<!DOCTYPE svg PUBLIC "-//W3C//DTD SVG 20010904//EN"
 "http://www.w3.org/TR/2001/REC-SVG-20010904/DTD/svg10.dtd">
<svg version="1.0" xmlns="http://www.w3.org/2000/svg"
 width="1230.000000pt" height="1280.000000pt" viewBox="0 0 1230.000000 1280.000000"
 preserveAspectRatio="xMidYMid meet">
<g transform="translate(0.000000,1280.000000) scale(0.100000,-0.100000)"
fill="#000000" stroke="none">
<path d="M9329 12240 c-26 -5 -56 -13 -67 -19 -15 -8 -49 -8 -124 0 -57 6
-154 9 -216 6 -98 -5 -121 -9 -178 -36 -36 -17 -69 -29 -73 -26 -13 7 -247
-14 -322 -30 -44 -9 -95 -28 -129 -48 -40 -25 -76 -37 -135 -46 -85 -13 -249
-54 -301 -76 -17 -7 -46 -26 -66 -44 -26 -22 -70 -41 -166 -71 -177 -54 -277
-101 -327 -153 -27 -29 -58 -48 -95 -61 -30 -10 -107 -43 -170 -74 -91 -44
-127 -69 -174 -116 -39 -40 -88 -74 -145 -104 -145 -76 -260 -159 -296 -217
-23 -36 -52 -62 -97 -90 -156 -96 -266 -194 -304 -272 -15 -30 -35 -58 -44
-61 -32 -13 -135 -99 -214 -177 -58 -57 -94 -104 -126 -163 -25 -46 -62 -106
-82 -134 -20 -28 -40 -68 -43 -88 -7 -39 -28 -64 -103 -117 -69 -50 -167 -189
-213 -303 -21 -55 -39 -104 -39 -109 0 -26 -74 -211 -85 -211 -14 0 -26 25
-71 149 -91 252 -229 409 -405 462 l-69 21 -19 64 c-24 81 -67 135 -182 226
-49 39 -93 84 -100 100 -17 41 -105 116 -203 174 -47 28 -92 63 -104 81 -26
39 -133 103 -238 144 -42 16 -94 45 -114 63 -43 39 -119 69 -245 99 -49 11
-106 31 -126 44 -45 30 -166 53 -275 53 -52 0 -95 5 -112 14 -46 23 -95 27
-198 15 -54 -6 -155 -12 -224 -13 -114 -2 -134 -5 -230 -38 -58 -20 -133 -38
-166 -41 -68 -5 -151 -38 -252 -100 -35 -21 -86 -42 -114 -47 -61 -12 -140
-59 -233 -139 -38 -33 -76 -60 -83 -61 -45 -1 -150 -85 -236 -188 -33 -39 -72
-76 -88 -83 -40 -16 -120 -109 -173 -200 -25 -41 -63 -90 -85 -107 -45 -37
-98 -127 -141 -239 -17 -42 -45 -93 -63 -113 -39 -43 -68 -114 -98 -243 -13
-54 -31 -103 -44 -119 -28 -34 -52 -139 -61 -260 -4 -62 -12 -106 -25 -132
-25 -48 -33 -161 -20 -271 7 -63 6 -87 -6 -115 -17 -41 -11 -151 14 -258 9
-37 17 -112 18 -167 2 -86 7 -114 39 -207 21 -62 37 -126 37 -152 0 -56 19
-115 75 -231 23 -49 46 -110 49 -135 8 -57 43 -132 112 -241 30 -47 54 -97 54
-110 0 -38 48 -123 120 -213 39 -49 70 -97 74 -117 9 -46 59 -119 143 -209 38
-41 75 -91 82 -111 14 -43 86 -130 166 -200 37 -31 68 -70 81 -98 23 -48 90
-118 184 -191 30 -23 67 -63 81 -89 29 -49 81 -96 192 -174 37 -27 74 -61 82
-77 8 -16 28 -41 43 -55 33 -32 199 -145 212 -145 5 0 19 -18 31 -40 25 -44
82 -91 196 -162 40 -25 86 -64 105 -89 21 -27 77 -73 148 -120 74 -49 122 -89
137 -113 24 -37 102 -99 205 -163 32 -20 58 -42 58 -50 0 -22 96 -113 183
-173 53 -36 85 -66 98 -91 20 -41 67 -88 167 -167 42 -33 71 -67 87 -99 15
-30 63 -86 119 -141 64 -63 98 -105 110 -135 9 -24 55 -90 101 -146 53 -64 85
-111 85 -126 0 -27 44 -113 105 -206 29 -43 45 -78 45 -97 0 -40 22 -106 71
-211 31 -67 39 -95 39 -141 0 -34 13 -101 31 -165 23 -81 29 -118 24 -150 -6
-42 14 -194 35 -265 9 -32 7 -39 -28 -90 -45 -65 -75 -138 -98 -235 -13 -59
-15 -103 -8 -290 4 -121 10 -205 13 -186 5 29 14 38 51 57 48 24 60 23 60 -7
0 -26 16 -24 24 4 l6 22 20 -25 c24 -30 25 -54 4 -111 -8 -24 -26 -98 -40
-164 -13 -66 -31 -145 -39 -175 -17 -63 -20 -165 -5 -155 6 3 10 23 10 43 0
20 4 42 8 47 15 22 59 42 104 48 l48 7 -7 -63 c-3 -34 -12 -77 -19 -96 -16
-39 -17 -41 -6 -41 5 0 17 28 26 63 26 89 35 109 48 105 7 -3 15 -15 18 -28 8
-35 25 -35 50 0 20 28 53 40 64 22 7 -12 -22 -122 -39 -149 -13 -19 -12 -23 8
-36 l22 -14 -35 -29 c-30 -26 -65 -60 -145 -144 -35 -36 -35 -52 -2 -54 24 -1
32 5 48 36 11 21 32 44 48 53 17 8 36 23 43 34 15 21 77 61 96 61 21 0 13 -28
-17 -62 -25 -29 -61 -89 -61 -102 0 -2 7 -6 16 -8 24 -4 140 113 147 149 3 17
22 49 42 73 20 24 48 67 62 94 14 28 42 74 62 101 110 147 172 292 186 429 6
64 10 72 47 105 22 20 47 49 55 65 8 16 34 52 57 81 24 29 79 106 123 171 43
66 93 138 111 162 17 24 38 65 47 91 12 37 41 73 130 166 84 87 120 131 132
166 15 39 31 56 103 109 129 95 209 168 231 211 15 30 35 47 90 76 141 76 248
151 281 198 17 25 37 45 42 45 6 0 29 9 51 19 22 11 92 44 156 75 97 46 123
63 159 105 23 28 50 51 59 51 9 0 21 4 26 8 6 5 44 21 85 37 131 49 228 104
267 151 19 24 40 44 46 44 18 0 187 70 267 110 55 28 91 54 122 90 24 27 49
50 56 50 19 0 297 135 328 159 14 11 41 40 60 66 19 25 40 45 47 45 21 0 198
96 272 147 42 29 82 67 100 94 23 34 50 56 109 90 83 46 226 150 263 190 11
13 30 40 40 59 12 22 54 59 114 100 130 90 224 181 260 252 16 32 33 58 37 58
13 0 99 77 203 180 76 75 99 105 113 145 14 41 31 62 92 115 119 104 234 252
234 302 0 10 36 57 81 105 148 161 219 269 219 331 0 8 11 27 24 41 89 95 209
251 226 295 6 16 15 49 21 73 7 32 27 65 66 112 110 129 193 275 193 339 0 14
6 33 14 41 29 33 107 149 157 234 37 64 54 106 63 155 8 51 22 84 57 137 26
39 70 116 98 173 42 83 53 117 58 170 3 37 11 74 18 82 24 29 134 266 150 324
11 37 15 73 11 98 -4 26 -2 48 8 66 27 49 74 166 101 252 22 70 26 100 23 170
-1 47 1 90 5 97 15 24 59 192 74 284 15 88 15 103 0 159 -14 57 -14 70 5 183
26 159 22 290 -11 362 -18 39 -24 73 -28 155 -8 201 -47 345 -117 439 -14 19
-26 41 -26 48 0 30 -55 183 -95 265 -54 108 -84 148 -146 193 -27 19 -49 40
-49 46 0 24 -140 207 -204 267 -67 63 -110 89 -178 111 -21 7 -41 18 -45 25
-5 7 -33 33 -63 57 -144 116 -280 189 -355 189 -27 0 -61 7 -75 15 -14 8 -32
17 -40 21 -8 4 -47 21 -86 39 -127 58 -243 87 -342 84 -67 -2 -109 4 -183 23
-53 14 -131 29 -175 33 -43 4 -86 8 -94 10 -8 1 -36 -1 -61 -5z m47 -572 c43
-19 72 -22 229 -26 171 -4 182 -5 219 -29 35 -23 79 -35 311 -89 66 -15 85
-24 109 -52 19 -21 81 -59 184 -109 126 -62 158 -83 171 -107 9 -17 75 -89
148 -161 122 -120 133 -134 143 -180 11 -49 56 -139 110 -220 49 -74 68 -126
68 -190 0 -37 10 -97 27 -155 63 -217 62 -211 47 -260 -14 -45 -12 -153 6
-328 7 -63 5 -80 -14 -126 -26 -59 -42 -172 -47 -322 -3 -85 -7 -106 -26 -132
-12 -17 -28 -50 -37 -74 -13 -39 -47 -208 -61 -313 -3 -22 -16 -51 -29 -65
-38 -41 -71 -126 -109 -280 -31 -126 -41 -150 -70 -180 -18 -19 -42 -53 -53
-75 -22 -44 -102 -278 -102 -299 0 -6 -19 -32 -42 -57 -51 -53 -94 -132 -138
-249 -18 -47 -37 -98 -44 -115 -6 -16 -34 -52 -61 -80 -50 -50 -94 -129 -167
-298 -24 -58 -43 -87 -72 -110 -49 -39 -107 -129 -175 -272 -30 -60 -61 -114
-70 -119 -47 -26 -121 -121 -186 -240 -55 -102 -79 -136 -112 -159 -49 -35
-122 -124 -184 -222 -78 -125 -89 -138 -138 -166 -52 -30 -98 -80 -207 -228
-48 -65 -81 -99 -109 -113 -59 -30 -128 -91 -194 -172 -94 -114 -124 -143
-164 -155 -50 -17 -123 -75 -237 -192 -77 -78 -102 -99 -133 -104 -50 -10
-130 -63 -257 -174 -58 -50 -110 -91 -116 -91 -65 -1 -182 -69 -323 -185 -61
-50 -88 -66 -122 -71 -62 -9 -167 -66 -286 -156 -85 -64 -112 -79 -158 -87
-31 -6 -85 -27 -120 -46 -59 -33 -194 -130 -239 -170 -10 -10 -41 -23 -70 -29
-88 -21 -152 -60 -315 -190 -33 -27 -61 -53 -61 -57 0 -4 -24 -15 -53 -23 -81
-23 -162 -82 -283 -203 -76 -77 -121 -114 -149 -124 -67 -24 -214 -176 -312
-324 -12 -18 -32 -37 -44 -40 -56 -18 -163 -146 -233 -281 -21 -41 -59 -92
-92 -124 -31 -30 -67 -73 -81 -97 -35 -61 -123 -262 -123 -283 0 -19 -14 -30
-105 -80 -33 -18 -80 -52 -105 -76 -46 -44 -70 -55 -70 -31 0 6 7 100 15 207
8 107 21 287 30 400 8 113 22 291 29 395 15 187 14 191 -6 225 -11 19 -31 87
-44 150 -27 134 -41 171 -86 231 -18 24 -44 78 -57 119 -31 101 -87 205 -127
238 -19 16 -51 65 -79 119 -52 104 -110 183 -154 209 -17 10 -47 45 -68 79
-58 96 -134 186 -180 215 -24 15 -53 41 -65 56 -87 114 -158 190 -205 216 -34
19 -76 58 -118 108 -72 87 -125 133 -177 155 -20 8 -73 55 -122 109 -69 76
-101 102 -151 126 -45 21 -78 47 -118 93 -61 70 -148 141 -187 152 -14 4 -75
55 -135 114 -70 67 -124 111 -148 119 -25 9 -70 47 -135 114 -60 63 -113 108
-140 120 -26 12 -58 39 -83 71 -63 81 -140 157 -177 176 -21 11 -65 58 -116
127 -57 75 -95 116 -123 132 -32 18 -53 42 -90 105 -27 47 -76 110 -113 147
-43 42 -79 91 -104 140 -52 101 -90 154 -126 180 -17 12 -30 25 -30 30 0 31
-100 231 -132 266 -21 23 -38 46 -38 51 0 34 -75 234 -99 264 -23 28 -34 61
-55 164 -18 86 -34 141 -50 165 -20 30 -25 52 -31 149 -4 70 -13 130 -23 155
-14 33 -16 67 -14 176 2 81 -2 156 -9 188 -11 46 -10 65 10 157 13 60 21 131
20 167 -2 53 4 79 35 158 24 59 40 119 43 159 5 49 14 79 41 125 66 113 92
169 92 196 0 26 20 56 118 183 24 31 51 76 60 100 13 33 38 63 100 117 47 41
95 94 111 121 27 48 51 69 146 123 27 16 75 55 106 86 47 47 72 63 153 95 57
23 114 53 139 75 36 31 58 40 147 60 110 24 139 34 180 62 18 12 57 18 145 22
71 4 139 13 167 23 44 15 54 15 164 -2 90 -14 126 -16 156 -8 42 11 49 10 196
-41 41 -15 96 -26 122 -26 40 0 64 -9 144 -55 52 -30 120 -62 152 -70 57 -15
85 -32 179 -111 52 -43 92 -66 135 -78 14 -4 60 -47 104 -96 57 -65 93 -97
132 -116 30 -14 54 -30 54 -34 0 -4 22 -40 49 -81 46 -69 218 -247 275 -285
16 -10 30 -32 36 -58 21 -82 83 -195 143 -259 32 -34 83 -92 113 -129 29 -37
59 -70 65 -73 5 -4 14 -18 19 -31 5 -13 27 -35 49 -49 22 -14 48 -36 57 -50
17 -26 44 -34 44 -12 0 18 -35 67 -66 92 -16 13 -24 27 -20 33 10 17 19 15 58
-11 19 -13 46 -27 60 -30 14 -4 33 -18 42 -32 11 -17 25 -25 44 -25 l27 1 -23
17 c-13 9 -41 34 -63 55 -22 20 -44 37 -49 37 -12 0 -101 190 -94 201 9 15 30
10 49 -11 24 -27 35 -25 35 5 0 31 14 32 34 3 16 -22 16 -22 16 10 0 30 2 32
38 32 21 0 47 -7 58 -15 29 -20 38 -69 19 -105 -19 -37 -18 -195 2 -212 17
-14 43 46 43 101 0 48 8 71 25 71 17 0 35 -53 35 -106 0 -23 4 -54 10 -68 6
-18 5 -39 -5 -73 -8 -26 -13 -47 -12 -48 1 0 12 -6 25 -13 13 -7 27 -10 32 -7
7 4 6 116 -3 265 -2 32 0 35 26 33 21 -1 27 3 27 19 0 21 61 121 81 134 6 3
18 -1 27 -9 13 -13 14 -23 5 -52 -13 -41 -5 -49 37 -40 35 8 38 -2 11 -36 -22
-29 -61 -104 -61 -119 0 -22 16 -7 42 39 15 27 40 58 56 69 l29 21 26 -27 c14
-15 28 -43 32 -62 5 -30 2 -39 -19 -59 -25 -24 -35 -51 -18 -51 12 0 86 80
119 130 17 25 57 74 90 110 53 59 93 111 164 210 29 41 82 159 111 245 11 33
25 114 32 180 l11 120 55 21 c68 27 163 111 238 214 30 41 58 77 62 80 4 3 12
15 19 27 6 12 40 36 75 52 51 25 87 55 187 159 94 98 134 132 164 142 53 17
136 72 210 140 120 110 145 130 168 130 31 0 152 59 207 101 127 97 177 127
228 134 49 6 200 71 232 100 8 7 39 25 68 40 29 15 55 31 58 36 3 5 31 9 62 9
61 0 150 28 307 98 80 35 101 40 190 45 80 4 126 13 230 46 129 42 131 42 205
31 74 -11 136 -6 340 30 25 4 50 8 56 9 6 0 33 -9 60 -21z"/>
</g>
</svg>
