<?xml version="1.0" standalone="no"?>
<!DOCTYPE svg PUBLIC "-//W3C//DTD SVG 20010904//EN"
 "http://www.w3.org/TR/2001/REC-SVG-20010904/DTD/svg10.dtd">
<svg version="1.0" xmlns="http://www.w3.org/2000/svg"
 width="1280.000000pt" height="1229.000000pt" viewBox="0 0 1280.000000 1229.000000"
 preserveAspectRatio="xMidYMid meet">
<g transform="translate(0.000000,1229.000000) scale(0.100000,-0.100000)"
fill="#000000" stroke="none">
<path d="M3905 10990 c-340 -53 -593 -134 -938 -299 -414 -198 -616 -339 -902
-632 -193 -198 -330 -377 -488 -640 -74 -124 -196 -374 -253 -521 -92 -236
-81 -286 26 -123 18 28 47 66 65 85 18 19 82 105 143 191 159 224 363 478 488
609 40 41 93 101 119 133 26 31 51 57 55 57 4 0 68 57 141 128 439 417 891
676 1422 816 204 54 319 71 576 82 192 9 487 -28 738 -92 73 -19 145 -34 160
-34 l28 0 -25 20 c-45 34 -174 98 -260 128 -99 34 -290 76 -452 97 -157 21
-497 18 -643 -5z"/>
<path d="M5191 10205 l-44 -48 -130 22 c-417 71 -840 67 -1152 -10 -82 -20
-276 -81 -330 -104 -16 -7 -41 -16 -55 -20 -14 -3 -34 -10 -45 -15 -11 -5 -45
-20 -75 -33 -55 -24 -177 -129 -281 -242 -100 -109 -240 -298 -355 -480 -31
-49 -69 -103 -84 -120 -33 -37 -90 -123 -90 -135 0 -5 -10 -16 -23 -25 -13 -8
-29 -30 -35 -49 -7 -20 -23 -43 -36 -53 -12 -10 -33 -37 -46 -59 -13 -22 -36
-48 -52 -57 -15 -9 -28 -23 -28 -32 0 -32 -41 -111 -63 -120 -13 -6 -27 -26
-35 -51 -11 -34 -19 -43 -43 -48 -17 -3 -38 -2 -48 3 -42 23 -84 -110 -115
-369 -9 -69 -21 -165 -28 -215 -15 -106 -13 -540 2 -690 34 -331 41 -436 34
-535 -3 -58 -10 -109 -14 -115 -4 -5 -3 -43 2 -84 6 -50 5 -78 -2 -85 -5 -5
-10 -22 -10 -37 0 -15 -4 -31 -10 -34 -5 -3 -10 -17 -10 -30 0 -31 -31 -40
-69 -21 -17 9 -32 16 -36 16 -9 0 -6 -66 6 -121 8 -37 8 -58 0 -75 -8 -17 -5
-54 9 -146 36 -232 86 -501 114 -608 29 -112 30 -140 8 -156 -11 -8 -23 -29
-27 -47 -4 -17 -14 -43 -23 -57 -28 -43 -41 -92 -36 -138 5 -54 -8 -72 -51
-72 -19 0 -39 -8 -50 -20 -10 -11 -25 -20 -34 -20 -9 -1 -33 -16 -55 -35 -37
-33 -38 -37 -32 -77 7 -41 76 -182 118 -239 13 -17 19 -36 15 -50 -4 -15 12
-62 49 -141 29 -66 54 -121 54 -124 0 -2 25 -57 56 -122 31 -64 75 -157 99
-207 79 -168 262 -529 345 -680 45 -82 105 -194 132 -250 28 -55 70 -134 94
-176 24 -42 44 -85 44 -95 0 -11 4 -24 9 -30 4 -5 17 -31 27 -59 9 -27 24 -59
31 -70 19 -28 16 -63 -5 -70 -18 -5 -16 -11 17 -78 20 -39 40 -75 44 -78 5 -4
24 -33 42 -65 32 -55 33 -60 18 -84 -14 -25 -13 -30 15 -86 17 -32 42 -76 56
-97 14 -21 26 -44 26 -50 0 -7 4 -17 8 -23 4 -5 14 -27 21 -49 7 -22 19 -55
28 -73 8 -18 12 -45 9 -60 -3 -15 0 -43 7 -62 14 -40 113 -227 131 -250 7 -8
25 -37 40 -64 16 -27 44 -66 64 -88 29 -32 40 -38 60 -33 25 6 65 -13 92 -46
21 -25 151 -49 257 -48 48 1 176 -2 283 -5 200 -7 227 -7 317 -2 29 2 55 1 58
-2 17 -18 1478 -21 1795 -4 791 42 1163 83 1645 182 685 141 1237 328 1840
625 598 295 1022 590 1415 984 377 378 618 743 805 1220 92 234 175 553 175
673 0 50 -20 50 -85 -2 -59 -47 -70 -49 -61 -13 11 43 26 195 35 338 6 97 14
150 34 210 65 200 73 427 23 620 -39 149 -42 154 -88 161 -34 6 -42 12 -58 48
-18 42 -50 142 -75 240 -56 215 -269 612 -442 823 -64 78 -226 244 -263 269
-19 13 -55 40 -80 59 -71 55 -220 160 -275 194 -76 47 -379 199 -448 225 -34
13 -97 38 -140 55 -86 34 -119 38 -136 17 -15 -17 -5 -26 95 -77 44 -23 98
-54 122 -70 24 -16 45 -29 48 -29 20 0 286 -194 374 -272 153 -135 195 -177
246 -245 29 -39 59 -75 65 -78 6 -4 27 -32 47 -62 41 -62 58 -85 121 -168 45
-60 123 -214 115 -227 -9 -15 -19 -8 -37 25 -19 35 -158 177 -174 177 -12 0
-74 66 -103 110 -30 45 -91 110 -104 110 -5 0 -42 30 -81 68 -39 37 -91 81
-114 97 -24 17 -80 71 -124 120 -111 122 -226 233 -321 308 -44 34 -109 86
-144 115 -80 67 -162 107 -204 98 -17 -3 -45 -2 -62 3 -17 5 -56 15 -86 21
-30 6 -68 18 -85 25 -76 34 -352 117 -465 139 -316 64 -630 71 -877 21 -86
-18 -340 -103 -475 -159 -48 -20 -103 -36 -122 -36 -21 0 -56 -12 -88 -31 -61
-36 -198 -148 -228 -187 -24 -30 -59 -56 -66 -49 -3 3 11 56 31 118 44 135 75
283 75 353 0 28 -9 79 -20 113 -17 55 -19 81 -13 225 14 395 -69 648 -308 934
-65 78 -175 181 -184 173 -2 -2 25 -49 60 -103 82 -127 193 -344 239 -468 32
-87 76 -245 76 -273 0 -5 -38 63 -85 153 -46 90 -114 209 -151 265 -73 109
-243 292 -359 387 -158 129 -491 330 -554 335 -15 1 -32 4 -37 7 -5 3 -23 9
-41 12 -26 6 -32 4 -38 -14 -5 -16 -14 -21 -35 -18 -19 2 -34 -4 -47 -20 l-18
-22 -130 46 c-71 25 -186 64 -255 87 -69 22 -129 43 -133 47 -5 4 7 30 27 58
33 45 35 51 20 63 -9 7 -46 15 -83 17 l-67 4 -43 -47z"/>
<path d="M2970 9998 c-70 -32 -249 -143 -350 -216 -69 -51 -226 -209 -292
-294 -107 -138 -225 -391 -276 -593 -6 -22 -15 -59 -21 -81 -13 -51 -14 -164
-2 -164 5 0 19 25 30 55 11 30 34 82 51 115 16 33 30 66 30 74 0 7 17 47 39
87 127 243 181 336 254 434 12 17 41 55 63 85 47 62 299 321 357 366 87 67
105 81 147 117 48 41 38 46 -30 15z"/>
<path d="M3430 1160 c0 -5 5 -10 11 -10 5 0 7 5 4 10 -3 6 -8 10 -11 10 -2 0
-4 -4 -4 -10z"/>
</g>
</svg>
