<?xml version="1.0" standalone="no"?>
<!DOCTYPE svg PUBLIC "-//W3C//DTD SVG 20010904//EN"
 "http://www.w3.org/TR/2001/REC-SVG-20010904/DTD/svg10.dtd">
<svg version="1.0" xmlns="http://www.w3.org/2000/svg"
 width="1280.000000pt" height="1280.000000pt" viewBox="0 0 1280.000000 1280.000000"
 preserveAspectRatio="xMidYMid meet">
<g transform="translate(0.000000,1280.000000) scale(0.100000,-0.100000)"
fill="#000000" stroke="none">
<path d="M11832 11902 c-67 -24 -119 -66 -157 -127 -30 -48 -30 -50 -27 -177
l2 -127 -44 -43 c-45 -43 -106 -145 -106 -177 0 -11 -16 -25 -41 -36 -47 -22
-76 -58 -87 -111 -7 -34 -14 -42 -54 -61 -49 -23 -64 -42 -83 -108 -10 -32
-21 -44 -57 -63 -49 -25 -73 -58 -83 -114 -6 -31 -13 -39 -41 -48 -45 -15 -90
-68 -97 -118 -6 -35 -12 -42 -42 -52 -39 -13 -82 -59 -91 -98 -3 -15 -8 -34
-10 -42 -2 -9 -23 -24 -46 -35 -49 -23 -88 -75 -88 -116 0 -24 -8 -32 -52 -53
-28 -14 -57 -22 -62 -19 -50 28 -217 174 -230 201 -18 38 -73 66 -110 56 -40
-10 -71 -50 -71 -94 0 -47 25 -76 75 -90 21 -6 77 -42 127 -82 152 -123 176
-146 170 -161 -5 -14 -463 -557 -478 -567 -5 -3 -61 2 -126 12 -250 36 -747
46 -863 17 -20 -5 -88 -18 -153 -29 -64 -11 -166 -32 -226 -46 -66 -16 -120
-24 -136 -20 -42 11 -178 152 -208 217 -100 214 -19 494 239 825 34 44 130
154 213 244 83 90 149 165 146 168 -5 6 -260 -136 -391 -218 -407 -254 -741
-573 -906 -867 -162 -287 -218 -593 -158 -858 11 -49 11 -51 -16 -70 -211
-156 -474 -417 -636 -631 -153 -202 -287 -413 -376 -590 -17 -33 -37 -66 -45
-72 -15 -13 -29 9 -172 268 -112 202 -227 365 -403 573 -51 60 -92 113 -92
119 0 6 14 54 32 107 30 89 32 105 32 231 0 122 -3 143 -28 215 -37 106 -61
145 -91 145 -32 0 -37 -7 -94 -125 -80 -164 -133 -221 -182 -195 -29 16 -23
54 21 127 136 226 186 595 117 864 -41 158 -122 324 -214 437 -34 42 -79 57
-88 30 -2 -7 -6 -105 -9 -218 -4 -195 -6 -206 -26 -222 -28 -23 -53 -23 -72 0
-12 12 -17 52 -22 152 -9 168 -39 357 -76 471 -44 135 -127 289 -155 289 -6 0
-27 -16 -45 -35 -54 -55 -65 -47 -125 87 -75 167 -135 260 -234 358 -65 65
-105 95 -162 123 -99 48 -269 86 -269 59 0 -5 45 -46 100 -91 330 -273 518
-589 569 -954 18 -128 -11 -342 -71 -522 -51 -153 -208 -434 -253 -451 -7 -3
-73 13 -147 34 -524 155 -1078 171 -1601 48 -83 -20 -258 -72 -313 -93 -40
-15 -202 260 -265 449 -38 113 -66 257 -75 379 -15 217 75 496 237 740 64 94
252 293 371 393 32 26 58 52 58 58 0 17 -125 3 -197 -22 -188 -65 -341 -234
-467 -517 -35 -78 -59 -119 -71 -121 -10 -2 -34 12 -56 34 -32 31 -43 37 -57
28 -9 -6 -40 -57 -69 -115 -88 -175 -129 -358 -140 -614 -6 -164 -13 -185 -63
-185 -50 0 -55 16 -60 236 -4 170 -8 206 -22 220 -27 27 -55 7 -117 -86 -140
-210 -201 -404 -201 -644 0 -235 65 -478 169 -631 38 -55 26 -105 -26 -105
-48 0 -78 37 -158 191 -36 70 -72 130 -81 133 -63 24 -135 -163 -135 -349 0
-119 22 -216 76 -329 20 -43 34 -84 31 -91 -3 -8 -29 -47 -59 -87 -82 -110
-177 -269 -252 -418 -199 -398 -311 -802 -360 -1305 -21 -214 -16 -624 9 -785
73 -456 257 -865 562 -1245 105 -130 349 -377 489 -494 408 -340 813 -593
1740 -1086 503 -267 659 -354 884 -488 787 -469 1571 -1129 2049 -1725 118
-147 243 -334 290 -434 21 -43 39 -78 42 -78 3 0 20 30 39 67 261 531 1208
1433 2201 2098 298 200 535 339 1155 680 198 109 439 243 535 298 1023 585
1583 1096 1891 1722 120 245 189 475 231 770 17 118 16 571 -1 735 -38 377
-130 747 -262 1060 -27 63 -49 125 -49 138 0 13 13 42 29 65 69 101 138 268
165 399 87 422 -11 916 -294 1472 -88 175 -201 371 -239 416 l-21 25 15 -50
c32 -104 84 -326 102 -431 13 -80 18 -162 18 -309 0 -178 -2 -209 -23 -278
-62 -214 -177 -335 -364 -382 -79 -20 -73 -23 -198 80 -104 86 -275 202 -400
270 -124 69 -140 81 -140 109 1 19 199 288 254 344 l22 23 167 -127 c140 -105
170 -133 186 -169 32 -72 99 -88 152 -36 53 54 36 120 -39 153 -42 18 -310
225 -342 263 -8 10 -9 26 -3 52 7 30 17 41 54 60 50 26 74 59 84 115 6 31 13
39 41 48 45 15 90 68 97 118 6 35 12 42 42 52 39 13 82 59 91 98 3 15 8 35 10
44 3 9 20 22 39 28 45 15 83 62 91 111 6 35 12 42 45 56 51 20 87 64 95 115 6
35 12 42 50 59 47 20 80 62 90 116 5 25 13 34 40 43 40 14 80 58 89 100 4 17
15 35 25 40 10 6 21 19 25 29 10 31 65 59 151 77 139 28 210 84 249 195 58
162 -62 320 -253 336 -61 4 -72 2 -126 -27 -82 -44 -87 -40 -79 73 4 73 2 104
-11 143 -17 53 -77 123 -125 148 -48 26 -120 28 -179 8z m102 -358 c7 -20 -27
-140 -49 -171 -24 -34 -49 -30 -41 5 3 15 10 52 15 83 5 32 14 66 20 78 14 25
46 28 55 5z m324 -263 c5 -32 -13 -48 -71 -62 -29 -6 -64 -20 -79 -30 -50 -36
-65 -19 -20 23 34 33 144 98 157 94 6 -1 11 -13 13 -25z"/>
<path d="M2942 10455 c-257 -29 -433 -70 -550 -127 -255 -125 -94 -286 363
-363 621 -104 1443 -14 1592 175 7 8 13 32 13 52 1 111 -208 201 -590 254
-162 22 -663 28 -828 9z m950 -74 c229 -36 318 -72 318 -131 0 -25 -7 -32 -52
-54 -67 -33 -188 -61 -353 -82 -168 -23 -782 -26 -950 -6 -230 28 -383 65
-423 102 -13 12 -22 33 -22 50 0 37 40 62 140 89 189 50 333 60 810 56 344 -2
413 -5 532 -24z"/>
</g>
</svg>
