<?xml version="1.0" standalone="no"?>
<!DOCTYPE svg PUBLIC "-//W3C//DTD SVG 20010904//EN"
 "http://www.w3.org/TR/2001/REC-SVG-20010904/DTD/svg10.dtd">
<svg version="1.0" xmlns="http://www.w3.org/2000/svg"
 width="1280.000000pt" height="1019.000000pt" viewBox="0 0 1280.000000 1019.000000"
 preserveAspectRatio="xMidYMid meet">
<g transform="translate(0.000000,1019.000000) scale(0.100000,-0.100000)"
fill="#e91e63" stroke="none">
<path d="M3055 10180 c-33 -4 -112 -13 -175 -20 -600 -60 -1190 -305 -1673
-692 -140 -112 -404 -379 -511 -518 -321 -415 -531 -876 -625 -1370 -55 -287
-84 -684 -61 -852 5 -40 14 -118 20 -173 103 -942 701 -2155 1653 -3348 329
-414 632 -746 1069 -1173 913 -892 1924 -1575 2752 -1860 231 -80 371 -111
729 -164 86 -13 252 -13 331 0 33 5 115 17 181 26 932 128 2190 901 3379 2074
713 704 1289 1418 1758 2181 441 715 734 1412 848 2009 35 187 70 481 70 593
0 86 -22 367 -40 501 -72 559 -295 1088 -656 1556 -107 139 -381 417 -519 525
-469 373 -1036 612 -1613 679 -346 41 -401 42 -662 17 -764 -76 -1423 -373
-1950 -877 -288 -276 -487 -548 -665 -909 -129 -262 -207 -481 -259 -730 -28
-137 -42 -142 -66 -25 -94 463 -308 923 -616 1320 -114 148 -396 430 -544 544
-478 370 -1015 593 -1595 661 -71 8 -169 19 -216 25 -98 11 -255 11 -344 0z
m8454 -2485 c248 -41 382 -161 398 -360 5 -55 1 -70 -42 -170 -109 -256 -197
-352 -420 -460 -155 -75 -257 -108 -320 -103 -116 10 -216 93 -289 241 -70
141 -97 259 -103 454 -5 144 -3 168 15 230 32 103 85 149 207 176 54 12 465 6
554 -8z m-594 -1326 c150 -32 309 -157 379 -299 70 -143 82 -293 35 -432 -25
-75 -208 -449 -315 -643 -446 -813 -991 -1544 -1664 -2229 -482 -490 -998
-925 -1503 -1263 -244 -164 -336 -203 -482 -203 -366 1 -643 346 -560 699 40
167 128 277 325 406 635 413 1365 1077 1922 1744 453 544 833 1129 1140 1758
91 185 119 233 166 285 150 162 340 222 557 177z"/>
</g>
</svg>
